<?xml version="1.0" encoding="UTF-8"?>
<svg id="Layer_1" xmlns="http://www.w3.org/2000/svg" viewBox="0 0 268.2 127.52">
  <defs>
    <style>
      .cls-1 {
        fill: #231f20;
      }

      .cls-2 {
        fill: #001e77;
      }
    </style>
  </defs>
  <g id="Layer_1-2" data-name="Layer_1">
    <g>
      <path class="cls-1" d="M83.8,41.59c-.5,4.8-1.2,20.6-1.2,32.8s1.3,7.7,4.6,7.8l-.7,6c-.6.3-1.9.4-2.8.4-4.1,0-7.4-2.7-7.9-9.7h-.3c-3,5.5-8.3,9.7-15.7,9.7-10.9,0-18.8-9.1-18.8-23.1s9.9-24.9,20.5-24.9,11.7,3.4,14.1,9.2h.4c.2-3.6.5-5.9.9-8.2,0,0,6.9,0,6.9,0ZM61.9,81.89c5.8,0,10.8-5.6,12.2-11.7.5-2.1.6-3.9.6-6.5s0-3.3-.4-4.9c-1.1-6.2-5.7-11.8-11.8-11.8s-13.1,7.7-13.1,18.1,4.5,16.7,12.4,16.7l.1.1Z"/>
      <path class="cls-1" d="M141.6,85.39c-3,1.5-9.1,3-16.9,3-18,0-31.6-11.4-31.6-32.3s13.6-33.6,33.4-33.6,13,1.7,15.2,2.8l-2,6.7c-3.1-1.5-7.6-2.7-12.9-2.7-15,0-24.9,9.6-24.9,26.4s9,25.7,24.6,25.7,10.2-1,13.5-2.7l1.7,6.5-.1.2Z"/>
    </g>
    <g>
      <path class="cls-1" d="M86.3,113.49h-1.7c-.2,0-.3-.1-.2-.4l4.2-14.6c0-.3.3-.4.6-.4h2.4c.3,0,.5.1.6.4l4.2,14.6c0,.3,0,.4-.3.4h-2s-.1-.2-.1-.3l-.9-3.1h-5.3l-.9,3.1c0,.3-.2.4-.4.4l-.2-.1ZM90.2,100.39l-2.1,7.7h4.3l-2.1-7.7h-.1Z"/>
      <path class="cls-1" d="M100.4,113.49h-1.5c-.3,0-.4-.1-.4-.4v-16.1c0-.3.1-.4.4-.4h1.5c.3,0,.4.1.4.4v16.1c0,.3-.1.4-.4.4Z"/>
      <path class="cls-1" d="M105.8,116.89h-1.5c-.3,0-.4-.1-.4-.4v-14.8c0-.3.1-.4.4-.4h1.5c.3,0,.4.1.4.4v.9h0c.4-.8,1.2-1.3,2.4-1.3h1.2c1.2,0,2,.3,2.7,1,.6.6.9,1.6.9,2.8v4.8c0,1.2-.3,2.1-.9,2.7s-1.5,1-2.7,1h-1.2c-1.2,0-2-.4-2.4-1.3h0v4.2c0,.3-.1.4-.4.4ZM108.2,111.49h1.3c1.2,0,1.7-.6,1.7-1.8v-4.6c0-1.2-.6-1.8-1.7-1.8h-1.3c-1.3,0-2,.7-2,2v4.1c0,1.4.7,2,2,2v.1Z"/>
      <path class="cls-1" d="M118.3,113.49h-1.5c-.3,0-.4-.1-.4-.4v-16.1c0-.3.1-.4.4-.4h1.5c.3,0,.4.1.4.4v5.5h0c.4-.8,1.2-1.3,2.4-1.3h1.1c1.2,0,2.1.3,2.7,1,.6.6.9,1.6.9,2.8v8.1c0,.3-.1.4-.4.4h-1.5c-.3,0-.4-.1-.4-.4v-8c0-1.2-.6-1.8-1.8-1.8h-1.1c-1.3,0-2,.7-2,2v7.8c0,.3-.1.4-.4.4h.1Z"/>
      <path class="cls-1" d="M133.2,113.49h-.9c-1.2,0-2.1-.3-2.7-1-.6-.7-1-1.6-1-2.7v-4.8c0-1.2.3-2.1,1-2.7.6-.6,1.6-1,2.7-1h5.4c.3,0,.4.1.4.4v11.4c0,.3-.1.4-.4.4h-1.5c-.3,0-.4-.1-.4-.4v-.9h0c-.4.8-1.2,1.3-2.4,1.3h-.2ZM135.7,109.39v-5.9q0-.2-.3-.2h-2.9c-1.2,0-1.7.6-1.7,1.8v4.6c0,1.2.6,1.8,1.7,1.8h1.2c1.3,0,2-.7,2-2v-.1Z"/>
      <path class="cls-1" d="M153.3,113.49h-2.8c-1.2,0-2.1-.3-2.7-1-.6-.7-1-1.6-1-2.7v-8c0-1.2.3-2.1,1-2.7.6-.6,1.6-1,2.7-1h2.8c1.2,0,2.1.3,2.7,1s1,1.6,1,2.7v1.2c0,.3-.1.4-.4.4h-1.5c-.3,0-.4-.1-.4-.4v-1.1c0-1.2-.6-1.8-1.7-1.8h-2.1c-1.2,0-1.7.6-1.7,1.8v7.8c0,1.2.6,1.8,1.7,1.8h2.1c1.2,0,1.7-.6,1.7-1.8v-1.1c0-.3.1-.4.4-.4h1.5c.3,0,.4.1.4.4v1.2c0,1.2-.3,2.1-1,2.7-.7.7-1.6,1-2.7,1Z"/>
      <path class="cls-1" d="M168.4,113.49h-5.2c-1.2,0-2.1-.3-2.7-1-.6-.7-1-1.6-1-2.7v-4.8c0-1.2.3-2.1,1-2.7.6-.6,1.6-1,2.7-1h2c1.2,0,2.1.3,2.8,1,.7.6,1,1.6,1,2.7v3c0,.3-.1.4-.4.4h-6.4c-.2,0-.3,0-.3.2v1c0,1.2.6,1.8,1.8,1.8h4.8c.3,0,.4.1.4.4v1.2c0,.3-.1.4-.4.4l-.1.1ZM162,106.79h4.3q.2,0,.2-.2v-1.5c0-.6-.1-1.1-.4-1.3-.3-.3-.7-.4-1.3-.4h-1.3c-.6,0-1,.1-1.3.4s-.4.7-.4,1.3v1.5q0,.2.2.2Z"/>
      <path class="cls-1" d="M173.5,113.49h-1.5c-.3,0-.4-.1-.4-.4v-11.4c0-.3.1-.4.4-.4h1.5c.3,0,.4.1.4.4v.9h0c.4-.8,1.2-1.3,2.4-1.3h1.1c1.2,0,2.1.3,2.7,1,.6.6.9,1.6.9,2.8v8.1c0,.3-.1.4-.4.4h-1.5c-.3,0-.4-.1-.4-.4v-8c0-1.2-.6-1.8-1.8-1.8h-1.1c-1.3,0-2,.7-2,2v7.8c0,.3-.1.4-.4.4l.1-.1Z"/>
      <path class="cls-1" d="M184.3,103.29h-1.5v-1.5c0-.3.1-.4.4-.4h1.2q.2,0,.2-.2v-2.2c0-.3.1-.4.4-.4h1.5c.3,0,.4.1.4.4v2.2q0,.2.3.2h2.2c.3,0,.4.1.4.4v1.2c0,.3-.1.4-.4.4h-2.2c-.2,0-.3,0-.3.2v6.2c0,1.2.6,1.8,1.8,1.8h.9c.3,0,.4.1.4.4v1.2c0,.3-.1.4-.4.4h-1.3c-1.2,0-2.1-.3-2.8-1s-1-1.5-1-2.7v-6.3q0-.2-.2-.2v-.1Z"/>
      <path class="cls-1" d="M196.8,113.49h-.9c-1.2,0-2.1-.3-2.7-1-.6-.7-1-1.6-1-2.7v-4.8c0-1.2.3-2.1,1-2.7.6-.6,1.6-1,2.7-1h5.4c.3,0,.4.1.4.4v11.4c0,.3-.1.4-.4.4h-1.5c-.3,0-.4-.1-.4-.4v-.9h0c-.4.8-1.2,1.3-2.4,1.3h-.2ZM199.3,109.39v-5.9q0-.2-.3-.2h-2.9c-1.2,0-1.7.6-1.7,1.8v4.6c0,1.2.6,1.8,1.7,1.8h1.2c1.3,0,2-.7,2-2v-.1Z"/>
      <path class="cls-1" d="M209.2,113.49h-1.1c-1.2,0-2-.3-2.7-1-.6-.6-.9-1.6-.9-2.7v-8.1c0-.3.1-.4.4-.4h1.5c.3,0,.4.1.4.4v8c0,1.2.6,1.8,1.7,1.8h1.2c1.3,0,2-.7,2-2v-7.8c0-.3.1-.4.4-.4h1.5c.3,0,.4.1.4.4v11.4c0,.3-.1.4-.4.4h-1.5c-.3,0-.4-.1-.4-.4v-.9h0c-.4.8-1.2,1.3-2.4,1.3h-.1Z"/>
      <path class="cls-1" d="M219,113.49h-1.5c-.3,0-.4-.1-.4-.4v-11.4c0-.3.1-.4.4-.4h1.5c.3,0,.4.1.4.4v.9h0c.2-.4.5-.7.9-1s1-.4,1.5-.4h.9c.3,0,.4.1.4.4v1.2c0,.3-.1.4-.4.4h-1.4c-1.3,0-2,.7-2,2.2v7.6c0,.3-.1.4-.4.4l.1.1Z"/>
      <path class="cls-1" d="M225.2,99.19v-2.2c0-.3.1-.4.4-.4h1.6c.3,0,.4.1.4.4v2.2c0,.3-.1.4-.4.4h-1.6c-.3,0-.4-.1-.4-.4ZM225.2,113.09v-11.4c0-.3.1-.4.4-.4h1.5c.3,0,.4.1.4.4v11.7h-1.8c-.3,0-.4-.1-.4-.4l-.1.1Z"/>
      <path class="cls-1" d="M244.8,113.49h-7.8c-.3,0-.4-.1-.4-.4v-14.6c0-.3.1-.4.4-.4h1.5c.3,0,.4.1.4.4v12.7q0,.2.3.2h5.6c.3,0,.4.1.4.4v1.2c0,.3-.1.4-.4.4v.1Z"/>
      <path class="cls-1" d="M255.6,113.49h-7.8c-.3,0-.4-.1-.4-.4v-14.6c0-.3.1-.4.4-.4h1.5c.3,0,.4.1.4.4v12.7q0,.2.3.2h5.6c.3,0,.4.1.4.4v1.2c0,.3-.1.4-.4.4v.1Z"/>
      <path class="cls-1" d="M264.5,113.49h-2.8c-1.2,0-2.1-.3-2.7-1s-1-1.6-1-2.7v-8c0-1.2.3-2.1,1-2.7.6-.6,1.6-1,2.7-1h2.8c1.2,0,2.1.3,2.7,1s1,1.6,1,2.7v1.2c0,.3-.1.4-.4.4h-1.5c-.3,0-.4-.1-.4-.4v-1.1c0-1.2-.6-1.8-1.7-1.8h-2.1c-1.2,0-1.7.6-1.7,1.8v7.8c0,1.2.6,1.8,1.7,1.8h2.1c1.2,0,1.7-.6,1.7-1.8v-1.1c0-.3.1-.4.4-.4h1.5c.3,0,.4.1.4.4v1.2c0,1.2-.3,2.1-1,2.7-.7.7-1.6,1-2.7,1Z"/>
    </g>
    <path class="cls-2" d="M28.4,125.89c-5.8,2-10,2.3-11.7.1-4.8-6.1,13-25.3,28.9-40.4.7-.6,1.7-.6,2.4,0,.6.7.6,1.7,0,2.4-26.7,25.3-29.7,34.5-28.6,35.9,0,0,3,3.3,26.8-10.4,16.2-9.4,36.5-23.5,57.1-39.8,20.6-16.3,39.1-32.8,52-46.4,18.9-19.9,16.3-23.6,16.3-23.6-1-1.3-9.7-.7-37.3,16.8-.8.5-1.8.3-2.3-.5s-.3-1.8.5-2.3C156.6,2.39,170.6-3.01,174.3,1.59c7.3,9.2-37.2,49.7-68.8,74.7-24,19-58.5,43.1-76.9,49.6h-.2Z"/>
    <path class="cls-2" d="M176.4,91.69h-1.7c-.9,0-1.7-.7-1.7-1.6s.6-1.7,1.6-1.7h1.6c.9,0,1.7.6,1.7,1.5s-.6,1.6-1.5,1.7v.1ZM182.9,90.99c-.8,0-1.6-.5-1.8-1.3-.2-.9.4-1.7,1.3-1.9.5-.1,1-.2,1.5-.3.9-.2,1.8.3,2,1.1.2.9-.3,1.8-1.1,2-.5.1-1.1.3-1.7.4h-.2ZM168.2,91.69h-1.9c-.9,0-1.6-.8-1.6-1.7s.8-1.6,1.7-1.6h1.6c.9,0,1.6.8,1.6,1.7,0,.8-.7,1.5-1.5,1.6h.1ZM160.1,91.29h-1.9c-.9-.2-1.6-1-1.5-1.9,0-.9.9-1.6,1.8-1.5h1.6c.9.2,1.6,1,1.5,1.9,0,.8-.7,1.4-1.5,1.5ZM152,90.59h-.3l-1.6-.2c-.9,0-1.5-.9-1.5-1.8s.9-1.5,1.8-1.5l1.6.2c.9,0,1.6.9,1.5,1.8,0,.8-.7,1.4-1.5,1.5ZM188.5,86.49c-.7,0-1.5-.4-1.7-1.1,0-.3-.3-.6-.5-.9-.6-.7-.4-1.7.3-2.3.7-.5,1.7-.4,2.3.3.5.6.8,1.3,1.1,1.9.3.8-.2,1.8-1,2.1h-.5ZM143.8,89.69h-.4l-1.5-.2c-.9-.1-1.5-.9-1.4-1.8s.9-1.5,1.8-1.4l1.5.2c.9.1,1.5.9,1.4,1.8,0,.8-.7,1.4-1.5,1.4h.1ZM182.7,80.99c-.3,0-.7,0-1-.2-.4-.3-.9-.5-1.4-.8-.8-.5-1.1-1.4-.6-2.2.5-.8,1.4-1.1,2.2-.6.5.3,1,.6,1.5.9.8.5,1,1.5.5,2.2-.3.5-.7.7-1.2.8v-.1ZM175.4,77.19c-.3,0-.6,0-.9-.1-.5-.2-1-.5-1.5-.7-.8-.4-1.2-1.3-.8-2.2.4-.8,1.3-1.2,2.2-.8.5.2,1,.5,1.5.7.8.4,1.2,1.4.8,2.2-.3.5-.8.9-1.3.9ZM167.9,73.99c-.3,0-.5,0-.8-.1-.5-.2-1-.4-1.5-.6-.8-.3-1.3-1.3-.9-2.1.3-.8,1.3-1.3,2.1-.9.5.2,1,.4,1.5.6.8.3,1.2,1.3.9,2.1-.2.6-.8,1-1.4,1h.1ZM160.3,70.99h-.7l-1.5-.5c-.9-.3-1.3-1.2-1-2.1.3-.8,1.2-1.3,2.1-1l1.5.5c.8.3,1.3,1.3,1,2.1-.2.6-.8,1-1.4,1.1v-.1ZM152.6,68.29h-.7l-1.5-.5c-.8-.3-1.3-1.2-1-2.1.3-.8,1.2-1.3,2.1-1l1.6.5c.9.3,1.3,1.2,1,2.1-.2.6-.8,1-1.4,1.1l-.1-.1ZM144.8,65.79h-.6l-1.6-.5c-.9-.3-1.3-1.2-1.1-2,.3-.9,1.2-1.4,2-1.1l1.6.5c.9.3,1.4,1.2,1.1,2-.2.7-.8,1.1-1.4,1.2v-.1ZM137,63.49h-.6l-1.6-.5c-.9-.3-1.4-1.2-1.1-2,.3-.9,1.2-1.4,2-1.1l1.6.5c.9.2,1.4,1.2,1.1,2-.2.7-.8,1.1-1.4,1.2v-.1ZM129.2,61.19h-.6l-1.6-.4c-.9-.2-1.4-1.1-1.1-2,.2-.9,1.1-1.4,2-1.1l1.6.4c.9.2,1.4,1.1,1.1,2-.2.7-.8,1.1-1.4,1.2v-.1ZM121.3,59.09h-.6l-1.6-.4c-.9-.2-1.4-1.1-1.2-2,.2-.9,1.1-1.4,2-1.2l1.6.4c.9.2,1.4,1.1,1.2,2-.2.7-.8,1.1-1.4,1.2ZM38.4,66.09h-.7l-1.6-.5c-.9-.3-1.3-1.2-1-2.1s1.2-1.3,2.1-1l1.5.5c.9.3,1.3,1.2,1,2.1-.2.6-.8,1.1-1.4,1.1l.1-.1ZM113.4,57.09h-.6l-1.6-.4c-.9-.2-1.4-1.1-1.2-2,.2-.9,1.1-1.4,2-1.2l1.6.4c.9.2,1.4,1.1,1.2,2s-.8,1.2-1.4,1.2ZM30.7,63.39h-.7l-1.5-.6c-.9-.3-1.3-1.2-1-2.1.3-.8,1.3-1.3,2.1-1l1.5.6c.8.3,1.3,1.2,1,2.1-.2.6-.8,1-1.4,1.1v-.1ZM105.4,55.19h-.5l-1.6-.4c-.9-.2-1.4-1.1-1.2-2,.2-.9,1.1-1.4,2-1.2l1.6.4c.9.2,1.4,1.1,1.2,2-.2.7-.8,1.2-1.4,1.2h-.1ZM97.4,53.39h-.5l-1.6-.3c-.9-.2-1.4-1.1-1.2-1.9.2-.9,1.1-1.4,1.9-1.2l1.6.3c.9.2,1.4,1.1,1.3,2-.2.7-.8,1.2-1.4,1.3l-.1-.2ZM23.1,60.49c-.3,0-.5,0-.8-.1l-1.5-.6c-.8-.3-1.2-1.3-.9-2.1.3-.8,1.3-1.2,2.1-.9l1.5.6c.8.3,1.2,1.3.9,2.1-.2.6-.8,1-1.4,1h.1ZM89.5,51.69h-.5l-1.6-.3c-.9-.2-1.4-1-1.3-1.9.2-.9,1-1.4,1.9-1.3l1.6.3c.9.2,1.5,1.1,1.3,1.9-.1.7-.7,1.2-1.4,1.3ZM15.6,57.29c-.3,0-.6,0-.8-.1-.5-.2-1-.5-1.5-.7-.8-.4-1.1-1.4-.8-2.2.4-.8,1.4-1.2,2.2-.8.5.2,1,.5,1.5.7.8.4,1.2,1.3.8,2.2-.2.5-.8.9-1.3.9h-.1ZM81.5,50.09h-.5l-1.6-.3c-.9-.2-1.5-1-1.3-1.9s1-1.5,1.9-1.3l1.6.3c.9.2,1.5,1,1.3,1.9-.1.7-.7,1.2-1.4,1.3ZM73.4,48.59h-.5l-1.6-.3c-.9-.2-1.5-1-1.3-1.9s1-1.5,1.9-1.3l1.6.3c.9.2,1.5,1,1.3,1.9-.1.7-.7,1.3-1.4,1.3ZM8.3,53.49c-.3,0-.7,0-1-.2-.5-.3-1-.6-1.4-.9-.7-.5-1-1.5-.5-2.3.5-.7,1.5-1,2.3-.5.4.3.9.6,1.3.8.8.5,1,1.5.6,2.2-.3.5-.7.7-1.2.8l-.1.1ZM65.4,47.19h-.4l-1.6-.3c-.9-.1-1.5-1-1.4-1.9s1-1.5,1.9-1.4l1.6.3c.9.1,1.5,1,1.3,1.9-.1.7-.7,1.3-1.5,1.4h.1ZM57.3,45.89h-.4l-1.6-.2c-.9-.1-1.5-1-1.4-1.9s1-1.5,1.9-1.4l1.6.2c.9.1,1.5,1,1.4,1.9-.1.8-.7,1.3-1.5,1.4ZM49.2,44.79h-.4l-1.6-.2c-.9-.1-1.5-.9-1.4-1.8.1-.9.9-1.5,1.8-1.4l1.6.2c.9.1,1.5.9,1.4,1.8,0,.8-.7,1.3-1.5,1.4h.1ZM2.2,48.29c-.6,0-1.3-.3-1.6-.9-.3-.6-.5-1.2-.6-1.8v-.7c0-.9.9-1.6,1.8-1.5.9,0,1.6.9,1.5,1.8,0,.2,0,.4.2.7.4.8.1,1.8-.7,2.2-.2.1-.4.2-.6.2ZM41.1,43.79h-.3l-1.6-.2c-.9-.1-1.5-.9-1.5-1.8s.9-1.5,1.8-1.5l1.6.2c.9.1,1.5.9,1.4,1.8,0,.8-.7,1.4-1.5,1.4l.1.1ZM33,43.09h-1.9c-.9-.2-1.6-1-1.5-1.9,0-.9.9-1.6,1.8-1.5h1.6c.9.2,1.6,1,1.5,1.9,0,.8-.7,1.4-1.5,1.5ZM24.8,42.49h-1.8c-.9,0-1.6-.8-1.6-1.7s.8-1.6,1.7-1.6h1.7c.9,0,1.6.8,1.6,1.7,0,.8-.7,1.5-1.5,1.6h-.1ZM16.7,42.39h-1.7c-.9,0-1.7-.7-1.7-1.6s.7-1.6,1.6-1.7h1.7c.9,0,1.6.7,1.7,1.6,0,.9-.6,1.6-1.5,1.7h-.1ZM6.9,43.29c-.8,0-1.6-.5-1.8-1.3-.2-.9.4-1.8,1.2-2,.5-.1,1.1-.2,1.7-.3.9-.1,1.7.5,1.9,1.4.1.9-.5,1.7-1.3,1.9-.5,0-1,.2-1.5.3,0,0-.1,0-.2,0Z"/>
  </g>
</svg>