<?xml version="1.0" encoding="UTF-8"?>
<svg id="Layer_1" xmlns="http://www.w3.org/2000/svg" viewBox="0 0 190.09 127.6">
  <g id="Layer_1-2">
    <g>
      <g>
        <path d="M83.8,41.67c-.5,4.8-1.2,20.6-1.2,32.8s1.3,7.7,4.6,7.8l-.7,6c-.6.3-1.9.4-2.8.4-4.1,0-7.4-2.7-7.9-9.7h-.3c-3,5.5-8.3,9.7-15.7,9.7-10.9,0-18.8-9.1-18.8-23.1s9.9-24.9,20.5-24.9,11.7,3.4,14.1,9.2h.4c.2-3.6.5-5.9.9-8.2,0,0,6.9,0,6.9,0ZM61.9,81.97c5.8,0,10.8-5.6,12.2-11.7.5-2.1.6-3.9.6-6.5s0-3.3-.4-4.9c-1.1-6.2-5.7-11.8-11.8-11.8s-13.1,7.7-13.1,18.1,4.5,16.7,12.4,16.7h.1s0,.1,0,.1Z" style="fill: #fff;"/>
        <path d="M141.6,85.47c-3,1.5-9.1,3-16.9,3-18,0-31.6-11.4-31.6-32.3s13.6-33.6,33.4-33.6,13,1.7,15.2,2.8l-2,6.7c-3.1-1.5-7.6-2.7-12.9-2.7-15,0-24.9,9.6-24.9,26.4s9,25.7,24.6,25.7,10.2-1,13.5-2.7l1.7,6.5v.2h-.1,0Z" style="fill: #fff;"/>
      </g>
      <path d="M28.4,125.97c-5.8,2-10,2.3-11.7.1-4.8-6.1,13-25.3,28.9-40.4.7-.6,1.7-.6,2.4,0,.6.7.6,1.7,0,2.4-26.7,25.3-29.7,34.5-28.6,35.9,0,0,3,3.3,26.8-10.4,16.2-9.4,36.5-23.5,57.1-39.8,20.6-16.3,39.1-32.8,52-46.4,18.9-19.9,16.3-23.6,16.3-23.6-1-1.3-9.7-.7-37.3,16.8-.8.5-1.8.3-2.3-.5s-.3-1.8.5-2.3C156.4,2.47,170.4-3.03,174.1,1.57c7.3,9.2-37.2,49.7-68.8,74.7-24,19-58.5,43.1-76.9,49.6h0s0,.1,0,.1Z" style="fill: #fff;"/>
      <path d="M176.4,91.77h-1.7c-.9,0-1.7-.7-1.7-1.6s.6-1.7,1.6-1.7h1.6c.9,0,1.7.6,1.7,1.5s-.6,1.6-1.5,1.7h0v.1h0ZM182.9,91.07c-.8,0-1.6-.5-1.8-1.3-.2-.9.4-1.7,1.3-1.9.5,0,1-.2,1.5-.3.9-.2,1.8.3,2,1.1.2.9-.3,1.8-1.1,2-.5,0-1.1.3-1.7.4,0,0-.2,0-.2,0ZM168.2,91.77h-1.9c-.9,0-1.6-.8-1.6-1.7s.8-1.6,1.7-1.6h1.6c.9,0,1.6.8,1.6,1.7s-.7,1.5-1.5,1.6h.1,0ZM160.1,91.37h-1.9c-.9-.2-1.6-1-1.5-1.9,0-.9.9-1.6,1.8-1.5h1.6c.9.2,1.6,1,1.5,1.9,0,.8-.7,1.4-1.5,1.5h0ZM152,90.67h-.3l-1.6-.2c-.9,0-1.5-.9-1.5-1.8s.9-1.5,1.8-1.5l1.6.2c.9,0,1.6.9,1.5,1.8,0,.8-.7,1.4-1.5,1.5ZM188.5,86.57c-.7,0-1.5-.4-1.7-1.1,0-.3-.3-.6-.5-.9-.6-.7-.4-1.7.3-2.3.7-.5,1.7-.4,2.3.3.5.6.8,1.3,1.1,1.9.3.8-.2,1.8-1,2.1h-.5ZM143.8,89.77h-.4l-1.5-.2c-.9,0-1.5-.9-1.4-1.8s.9-1.5,1.8-1.4l1.5.2c.9,0,1.5.9,1.4,1.8,0,.8-.7,1.4-1.5,1.4h.1,0ZM182.6,81.07c-.3,0-.7,0-1-.2-.4-.3-.9-.5-1.4-.8-.8-.5-1.1-1.4-.6-2.2.5-.8,1.4-1.1,2.2-.6.5.3,1,.6,1.5.9.8.5,1,1.5.5,2.2-.3.5-.7.7-1.2.8h0v-.1ZM175.4,77.27h-.9c-.5-.2-1-.5-1.5-.7-.8-.4-1.2-1.3-.8-2.2.4-.8,1.3-1.2,2.2-.8.5.2,1,.5,1.5.7.8.4,1.2,1.4.8,2.2-.3.5-.8.9-1.3.9v-.1ZM167.9,74.07h-.8c-.5-.2-1-.4-1.5-.6-.8-.3-1.3-1.3-.9-2.1.3-.8,1.3-1.3,2.1-.9.5.2,1,.4,1.5.6.8.3,1.2,1.3.9,2.1-.2.6-.8,1-1.4,1h0l.1-.1h0ZM160.3,71.07h-.7l-1.5-.5c-.9-.3-1.3-1.2-1-2.1.3-.8,1.2-1.3,2.1-1l1.5.5c.8.3,1.3,1.3,1,2.1-.2.6-.8,1-1.4,1.1h0v-.1h0ZM152.6,68.37h-.7l-1.5-.5c-.8-.3-1.3-1.2-1-2.1.3-.8,1.2-1.3,2.1-1l1.6.5c.9.3,1.3,1.2,1,2.1-.2.6-.8,1-1.4,1.1h-.1v-.1h0ZM144.8,65.87h-.6l-1.6-.5c-.9-.3-1.3-1.2-1.1-2,.3-.9,1.2-1.4,2-1.1l1.6.5c.9.3,1.4,1.2,1.1,2-.2.7-.8,1.1-1.4,1.2h0v-.1ZM137,63.57h-.6l-1.6-.5c-.9-.3-1.4-1.2-1.1-2,.3-.9,1.2-1.4,2-1.1l1.6.5c.9.2,1.4,1.2,1.1,2-.2.7-.8,1.1-1.4,1.2h0v-.1ZM129.2,61.27h-.6l-1.6-.4c-.9-.2-1.4-1.1-1.1-2,.2-.9,1.1-1.4,2-1.1l1.6.4c.9.2,1.4,1.1,1.1,2-.2.7-.8,1.1-1.4,1.2h0v-.1h0ZM121.3,59.17h-.6l-1.6-.4c-.9-.2-1.4-1.1-1.2-2,.2-.9,1.1-1.4,2-1.2l1.6.4c.9.2,1.4,1.1,1.2,2-.2.7-.8,1.1-1.4,1.2ZM38.4,66.17h-.7l-1.6-.5c-.9-.3-1.3-1.2-1-2.1s1.2-1.3,2.1-1l1.5.5c.9.3,1.3,1.2,1,2.1-.2.6-.8,1.1-1.4,1.1h.1s0-.1,0-.1ZM113.3,57.17h-.6l-1.6-.4c-.9-.2-1.4-1.1-1.2-2,.2-.9,1.1-1.4,2-1.2l1.6.4c.9.2,1.4,1.1,1.2,2s-.8,1.2-1.4,1.2ZM30.7,63.47h-.7l-1.5-.6c-.9-.3-1.3-1.2-1-2.1.3-.8,1.3-1.3,2.1-1l1.5.6c.8.3,1.3,1.2,1,2.1-.2.6-.8,1-1.4,1.1h0s0-.1,0-.1ZM105.4,55.27h-.5l-1.6-.4c-.9-.2-1.4-1.1-1.2-2,.2-.9,1.1-1.4,2-1.2l1.6.4c.9.2,1.4,1.1,1.2,2-.2.7-.8,1.2-1.4,1.2h-.1ZM97.4,53.47h-.5l-1.6-.3c-.9-.2-1.4-1.1-1.2-1.9.2-.9,1.1-1.4,1.9-1.2l1.6.3c.9.2,1.4,1.1,1.3,2-.2.7-.8,1.2-1.4,1.3v-.2s-.1,0-.1,0ZM23.1,60.57h-.8l-1.5-.6c-.8-.3-1.2-1.3-.9-2.1.3-.8,1.3-1.2,2.1-.9l1.5.6c.8.3,1.2,1.3.9,2.1-.2.6-.8,1-1.4,1h0s.1-.1.1-.1ZM89.5,51.77h-.5l-1.6-.3c-.9-.2-1.4-1-1.3-1.9.2-.9,1-1.4,1.9-1.3l1.6.3c.9.2,1.5,1.1,1.3,1.9,0,.7-.7,1.2-1.4,1.3ZM15.6,57.37h-.8c-.5-.2-1-.5-1.5-.7-.8-.4-1.1-1.4-.8-2.2.4-.8,1.4-1.2,2.2-.8.5.2,1,.5,1.5.7.8.4,1.2,1.3.8,2.2-.2.5-.8.9-1.3.9h-.1s0-.1,0-.1ZM81.5,50.17h-.5l-1.6-.3c-.9-.2-1.5-1-1.3-1.9s1-1.5,1.9-1.3l1.6.3c.9.2,1.5,1,1.3,1.9,0,.7-.7,1.2-1.4,1.3ZM73.4,48.67h-.5l-1.6-.3c-.9-.2-1.5-1-1.3-1.9s1-1.5,1.9-1.3l1.6.3c.9.2,1.5,1,1.3,1.9,0,.7-.7,1.3-1.4,1.3ZM8.3,53.57c-.3,0-.7,0-1-.2-.5-.3-1-.6-1.4-.9-.7-.5-1-1.5-.5-2.3.5-.7,1.5-1,2.3-.5.4.3.9.6,1.3.8.8.5,1,1.5.6,2.2-.3.5-.7.7-1.2.8h-.1v.1ZM65.4,47.27h-.4l-1.6-.3c-.9,0-1.5-1-1.4-1.9s1-1.5,1.9-1.4l1.6.3c.9,0,1.5,1,1.3,1.9,0,.7-.7,1.3-1.5,1.4h.1ZM57.3,45.97h-.4l-1.6-.2c-.9,0-1.5-1-1.4-1.9s1-1.5,1.9-1.4l1.6.2c.9,0,1.5,1,1.4,1.9,0,.8-.7,1.3-1.5,1.4ZM49.2,44.87h-.4l-1.6-.2c-.9,0-1.5-.9-1.4-1.8,0-.9.9-1.5,1.8-1.4l1.6.2c.9,0,1.5.9,1.4,1.8,0,.8-.7,1.3-1.5,1.4h.1ZM2.2,48.37c-.6,0-1.3-.3-1.6-.9-.3-.6-.5-1.2-.6-1.8v-.7c0-.9.9-1.6,1.8-1.5.9,0,1.6.9,1.5,1.8,0,.2,0,.4.2.7.4.8,0,1.8-.7,2.2-.2,0-.4.2-.6.2ZM41.1,43.87h-.3l-1.6-.2c-.9,0-1.5-.9-1.5-1.8s.9-1.5,1.8-1.5l1.6.2c.9,0,1.5.9,1.4,1.8,0,.8-.7,1.4-1.5,1.4h0l.1.1ZM33,43.17h-1.9c-.9-.2-1.6-1-1.5-1.9,0-.9.9-1.6,1.8-1.5h1.6c.9.2,1.6,1,1.5,1.9,0,.8-.7,1.4-1.5,1.5ZM24.8,42.57h-1.8c-.9,0-1.6-.8-1.6-1.7s.8-1.6,1.7-1.6h1.7c.9,0,1.6.8,1.6,1.7s-.7,1.5-1.5,1.6h-.1ZM16.7,42.47h-1.7c-.9,0-1.7-.7-1.7-1.6s.7-1.6,1.6-1.7h1.7c.9,0,1.6.7,1.7,1.6,0,.9-.6,1.6-1.5,1.7h-.1ZM6.9,43.37c-.8,0-1.6-.5-1.8-1.3-.2-.9.4-1.8,1.2-2,.5,0,1.1-.2,1.7-.3.9,0,1.7.5,1.9,1.4.1.9-.5,1.7-1.3,1.9-.5,0-1,.2-1.5.3,0,0-.1,0-.2,0Z" style="fill: #fff;"/>
    </g>
  </g>
</svg>